<svg width="14" height="22" viewBox="0 0 14 22" fill="none" xmlns="http://www.w3.org/2000/svg">
<path d="M6.57363 20.949L12.3973 20.949L12.3973 16.1903C12.3972 5.46492 6.57362 0.948975 6.57362 0.948975C6.57362 0.948975 0.750003 5.46492 0.750009 16.1903L0.750012 20.949H6.57363Z" fill="#FFA500" stroke="#111326" stroke-width="1.5" stroke-miterlimit="10"/>
<path d="M8.56826 15.6478L8.27415 15.3466L8.62802 14.9618C9.05435 14.4906 9.24555 14.0999 9.33583 13.5175C9.45686 12.6854 9.18094 11.8566 8.58488 11.2462L8.27509 10.9289L8.57628 10.6348L8.87746 10.3407L9.16372 10.6339C9.81468 11.3005 10.1729 12.2137 10.1576 13.1701C10.1423 14.1265 9.85998 14.8336 9.2123 15.5602L8.86236 15.949L8.56826 15.6478Z" fill="#111326"/>
<path d="M4.58116 15.6478L4.87526 15.3466L4.5214 14.9618C4.09506 14.4906 3.90387 14.0999 3.81359 13.5175C3.69256 12.6854 3.96848 11.8566 4.56453 11.2462L4.87432 10.9289L4.57314 10.6348L4.27195 10.3407L3.98569 10.6339C3.33474 11.3005 2.97647 12.2137 2.99181 13.1701C3.00715 14.1265 3.28943 14.8336 3.93711 15.5602L4.28705 15.949L4.58116 15.6478Z" fill="#111326"/>
<circle cx="6.57324" cy="13.199" r="2" fill="#111326"/>
</svg>
