<svg width="20" height="20" viewBox="0 0 20 20" fill="none" xmlns="http://www.w3.org/2000/svg">
<path d="M1.17651 1.17627H9.41181V7.05862H1.17651V1.17627Z" fill="#00A3E3"/>
<path d="M1.17627 7.05811H9.41156V12.9405H1.17627V7.05811Z" fill="#FFA500"/>
<path d="M1.17627 12.9409H9.41156V18.8233H1.17627V12.9409Z" fill="#F75349"/>
<path d="M18.8237 18.8237L10.5884 18.8237L10.5884 12.9414L18.8237 12.9414L18.8237 18.8237Z" fill="#00A3E3"/>
<path d="M18.824 12.9419L10.5887 12.9419L10.5887 7.05954L18.824 7.05954L18.824 12.9419Z" fill="#FFA500"/>
<path d="M18.824 7.05908L10.5887 7.05908L10.5887 1.17673L18.824 1.17673L18.824 7.05908Z" fill="#F75349"/>
<path d="M20 0V20H0V0H20ZM1.5 18.5H18.5V1.5H1.5V18.5Z" fill="#111326"/>
<path d="M9.25 18.75V1.25C9.25 0.835786 9.58579 0.5 10 0.5C10.4142 0.5 10.75 0.835786 10.75 1.25V18.75C10.75 19.1642 10.4142 19.5 10 19.5C9.58579 19.5 9.25 19.1642 9.25 18.75Z" fill="#111326"/>
</svg>
