<svg width="272" height="48" viewBox="0 0 272 48" fill="none" xmlns="http://www.w3.org/2000/svg">
<path fill-rule="evenodd" clip-rule="evenodd" d="M26.2292 0.208664C25.9664 0.0625901 23.1009 -0.0549821 21.3858 0.0269616C14.4262 0.354737 8.77331 2.90212 5.02009 7.39834C2.40313 10.5264 0.847868 14.3137 0.151906 19.2089C-0.0433889 20.545 -0.054041 26.1599 0.141254 26.3558C0.212271 26.4271 0.769749 26.5269 1.39114 26.5732C2.88249 26.6979 5.89714 26.6088 7.61574 26.3915C11.3441 25.9034 15.1009 24.489 17.9202 22.4902C19.3086 21.5176 21.5137 19.2944 22.4937 17.9014C24.578 14.955 25.9273 11.0787 26.3499 6.91024C26.531 5.06116 26.4493 0.347613 26.2363 0.212227L26.2292 0.208664ZM24.8017 4.42342C24.4857 11.3744 22.6748 15.9739 18.8186 19.6721H18.815C15.63 22.7147 11.2269 24.464 5.7338 24.8488C1.62905 25.1445 1.58289 25.1196 1.68231 21.7777C1.80659 17.7945 2.52386 14.8374 4.10753 11.7342C5.82613 8.36741 8.37207 5.83428 11.7773 4.09921C14.9056 2.51378 18.5594 1.69078 22.5044 1.69078C24.713 1.69078 24.9296 1.95442 24.8017 4.41986V4.42342Z" fill="white"/>
<path fill-rule="evenodd" clip-rule="evenodd" d="M12.5866 18.7244V20.5735L13.6518 20.5023C15.6332 20.3669 17.0499 19.7363 18.4348 18.3682C19.8196 17.0001 20.5972 15.1617 20.5972 13.2663V12.4362H18.8573V13.3197C18.8573 15.0156 18.0832 16.5832 16.7233 17.5986C15.7681 18.304 14.9337 18.5926 13.6447 18.671L12.583 18.7244H12.5866Z" fill="white"/>
<path fill-rule="evenodd" clip-rule="evenodd" d="M12.6049 17.3066C11.2947 17.1107 10.1939 16.2912 9.59026 15.0692C9.24938 14.3852 9.21387 14.2141 9.21387 13.2771C9.21387 12.3971 9.26003 12.1584 9.51924 11.5991C9.90628 10.7689 10.691 9.978 11.5219 9.58966C12.0794 9.32602 12.3208 9.28326 13.2512 9.28326C14.1815 9.28326 14.4123 9.31889 14.9698 9.60035C15.6764 9.94238 16.5144 10.7761 16.8659 11.4601C18.3466 14.3709 15.8433 17.784 12.6014 17.3031L12.6049 17.3066Z" fill="white"/>
<path fill-rule="evenodd" clip-rule="evenodd" d="M6.79578 10.2202C6.26316 11.3389 6.12822 11.8377 6.0288 13.1987L5.95068 14.182H7.71189V13.5086C7.71189 10.352 10.13 7.89371 13.2192 7.89371H13.9791V6.14795H13.3932C12.2783 6.15864 11.0355 6.45435 10.0341 6.95314C8.67062 7.63363 7.42783 8.89128 6.79933 10.2238L6.79578 10.2202Z" fill="white"/>
<path fill-rule="evenodd" clip-rule="evenodd" d="M39.8959 26.4592C37.5737 26.0423 35.0775 24.7383 33.2275 23.0104L32.5635 22.3762L33.2417 21.685L33.9199 20.9939L34.6798 21.6957C36.8955 23.7372 39.2994 24.6742 42.3496 24.6742C44.6718 24.6742 46.3052 24.097 47.5799 22.8287C48.6949 21.7207 49.2346 20.0604 48.9718 18.4928C48.7552 17.1425 48.0983 16.1984 46.7987 15.3683C45.7406 14.702 44.6576 14.3208 41.4974 13.537C39.8427 13.1201 38.117 12.6356 37.6838 12.4539C35.5675 11.5775 34.3602 10.2165 33.9448 8.24627C33.7282 7.23444 33.7282 6.58602 33.9448 5.67395C34.417 3.6788 35.8302 2.02924 37.9678 0.98178C39.3491 0.315542 40.1196 0.116028 41.7708 0.0340843C44.196 -0.0834872 46.6922 0.51862 48.6132 1.68365L49.5116 2.22875L48.8689 2.96624C48.5244 3.35815 48.2155 3.69305 48.1907 3.69305C48.1658 3.69305 47.903 3.52916 47.6012 3.34746C46.2555 2.48171 44.2421 1.96154 42.3105 1.96154C40.0699 1.96154 38.6176 2.51734 37.2648 3.86406C36.1853 4.93646 35.9084 5.61695 35.9758 7.04918C36.0575 8.74506 36.7819 9.80677 38.3336 10.5193C38.749 10.7046 40.3575 11.1642 41.9093 11.5454C45.1973 12.3399 45.9465 12.5715 47.0473 13.1273C49.3092 14.2567 50.552 15.6212 51.0029 17.4632C51.2018 18.2719 51.1769 20.1495 50.9568 21.0152C50.243 23.7728 47.9101 25.7894 44.6682 26.4592C43.5888 26.6765 41.0926 26.6872 39.8959 26.4699V26.4627V26.4592Z" fill="white"/>
<path fill-rule="evenodd" clip-rule="evenodd" d="M76.061 0.397827C76.061 0.397827 73.6394 4.66959 70.7028 9.74654L65.3766 18.9884V26.4061H63.2461V22.5725V18.682L68.4907 9.54702L73.721 0.401391H76.061V0.397827Z" fill="white"/>
<path fill-rule="evenodd" clip-rule="evenodd" d="M61.5457 16.0098L52.6509 0.401306H54.9447L62.6322 14.0752L61.5457 16.0098Z" fill="white"/>
<path d="M79.1396 0.198205L96.8938 21.2399V0.397719H99.0243V26.609L81.2701 5.49961V26.4059H79.1396V0.194641V0.198205Z" fill="white"/>
<path d="M106.236 0.0840454L116.416 16.6687L126.597 0.0840454L129.118 26.4094H127.002L125.052 5.88067L116.416 20.1353L107.784 5.88067L105.835 26.4094H103.719L106.24 0.0840454H106.236Z" fill="white"/>
<path fill-rule="evenodd" clip-rule="evenodd" d="M152.713 26.4096C152.713 26.4096 150.583 21.4324 148.101 15.4719C145.619 9.52559 143.484 4.67309 143.484 4.67309C143.484 4.67309 141.34 9.58259 138.847 15.5538L134.313 26.4096H132.115L143.484 0.00585938C143.484 0.00585938 146.13 5.94144 149.237 13.2024L154.886 26.4096H152.713Z" fill="white"/>
<path fill-rule="evenodd" clip-rule="evenodd" d="M157.581 26.4096H160.02L167.8 14.9446L175.551 26.4096H178.048L169.039 13.0741L177.518 0.401367H175.104L157.581 26.4096Z" fill="white"/>
<path fill-rule="evenodd" clip-rule="evenodd" d="M165.187 11.0826C165.322 10.8688 166.437 9.22635 166.437 9.22635L160.471 0.401367H157.968C157.968 0.401367 165.027 10.8439 165.19 11.0826H165.187Z" fill="white"/>
<path d="M64.8522 38.0743H63.4473V47.8332H64.8522V38.0743Z" fill="white"/>
<path d="M75.279 44.5428L69.0128 37.8605L69.02 38.4476V47.8369H70.425V41.3974L76.684 47.9999V37.9946H75.279V44.5428Z" fill="white"/>
<path d="M154.768 44.5428L148.502 37.8605L148.509 38.4476V47.8369H149.914V41.3974L156.173 47.9999L156.169 47.431V37.9946H154.768V44.5428Z" fill="white"/>
<path d="M80.2956 39.4369H83.1199V47.8369H84.5212V39.4369H87.3311V38.0743H80.2956V39.4369Z" fill="white"/>
<path d="M90.9355 47.8369H97.0753V46.4743H92.3405V43.7601H96.483V42.4012H92.3405V39.4369H97.0753V38.0743H90.9355V47.8369Z" fill="white"/>
<path d="M102.28 38.1251H100.878V47.8369H107.015V46.4743H102.28V38.1251Z" fill="white"/>
<path d="M112.02 38.1251H110.619V47.8369H116.755V46.4743H112.02V38.1251Z" fill="white"/>
<path d="M121.765 38.0743H120.36V47.8332H121.765V38.0743Z" fill="white"/>
<path d="M130.147 44.0681H133.138C133.065 44.3798 132.968 44.6697 132.838 44.9269C132.661 45.2857 132.433 45.5937 132.17 45.8474C131.906 46.0974 131.599 46.2895 131.256 46.4236C130.534 46.7026 129.645 46.6954 128.898 46.3692C128.508 46.1989 128.157 45.9525 127.857 45.6372C127.558 45.3219 127.316 44.9342 127.142 44.4848C126.965 44.0319 126.875 43.5173 126.875 42.952C126.875 42.3867 126.965 41.8721 127.142 41.4191C127.319 40.9698 127.561 40.5784 127.857 40.2667C128.157 39.9515 128.508 39.7087 128.901 39.5347C129.295 39.3644 129.714 39.2774 130.147 39.2774C130.685 39.2774 131.187 39.3862 131.635 39.6C132.076 39.8101 132.426 40.0964 132.675 40.4516L132.816 40.6509L134.16 40.2233L133.936 39.8609C133.567 39.2666 133.047 38.7919 132.386 38.4403C131.733 38.0925 130.974 37.9149 130.136 37.9149C129.512 37.9149 128.908 38.0381 128.341 38.2773C127.774 38.5201 127.272 38.8643 126.846 39.3064C126.42 39.7449 126.077 40.2812 125.828 40.8973C125.575 41.5133 125.448 42.2055 125.448 42.9484C125.448 43.6912 125.575 44.3797 125.828 44.9994C126.08 45.6155 126.424 46.1518 126.846 46.5903C127.272 47.0324 127.774 47.3766 128.341 47.6194C128.908 47.8622 129.512 47.9854 130.136 47.9854C130.761 47.9854 131.364 47.8695 131.906 47.6412C132.451 47.4092 132.932 47.0795 133.333 46.6519C133.734 46.2279 134.059 45.7169 134.297 45.1263C134.535 44.5392 134.669 43.8833 134.694 43.1766L134.727 42.7019H130.151V44.0645L130.147 44.0681Z" fill="white"/>
<path d="M138.353 47.8369H144.493V46.4743H139.758V43.7601H143.9V42.4012H139.758V39.4369H144.493V38.0743H138.353V47.8369Z" fill="white"/>
<path d="M162.053 40.2704C162.352 39.9551 162.703 39.7123 163.096 39.5384C163.49 39.368 163.909 39.2811 164.342 39.2811C164.902 39.2811 165.422 39.4006 165.888 39.6326C166.347 39.8609 166.704 40.1798 166.954 40.582L167.087 40.7958L168.452 40.3936L168.243 40.0276C167.867 39.3789 167.333 38.8571 166.654 38.4802C165.978 38.107 165.198 37.9185 164.335 37.9185C163.71 37.9185 163.107 38.0417 162.54 38.2809C161.973 38.5237 161.471 38.868 161.045 39.3101C160.619 39.7485 160.276 40.2849 160.026 40.9009C159.774 41.5169 159.647 42.2091 159.647 42.952C159.647 43.6949 159.774 44.3834 160.026 45.003C160.279 45.6191 160.622 46.1554 161.045 46.5939C161.471 47.036 161.973 47.3803 162.54 47.6231C163.107 47.8658 163.71 47.9891 164.335 47.9891C165.173 47.9891 165.942 47.8042 166.625 47.4419C167.315 47.0759 167.86 46.5504 168.243 45.88L168.452 45.5176L167.094 45.1154L166.961 45.3256C166.697 45.7387 166.329 46.0612 165.87 46.2859C165.032 46.6954 163.988 46.7606 163.1 46.3728C162.706 46.2025 162.356 45.9561 162.056 45.6408C161.756 45.3256 161.514 44.9378 161.341 44.4885C161.164 44.0355 161.074 43.5209 161.074 42.9556C161.074 42.3903 161.164 41.8757 161.341 41.4227C161.518 40.9734 161.76 40.582 162.056 40.2704H162.053Z" fill="white"/>
<path d="M178.049 39.4369V38.0743H171.909V47.8369H178.049V46.4743H173.314V43.7601H177.46V42.4012H173.314V39.4369H178.049Z" fill="white"/>
<path d="M268.422 16.2356L267.171 13.285H259.145L257.894 16.2356H254.943L261.836 0.56189H264.551L271.467 16.2356H268.422ZM263.181 3.77217H263.134L260.184 10.8064H266.132L263.181 3.77217Z" fill="#0094FF"/>
<path d="M246.433 16.2356V0.56189H249.265V16.2356H246.433Z" fill="#0094FF"/>
<path d="M231.225 7.12407H238.283V9.57899H231.225V13.7099H239.982V16.2356H228.392V0.56189H239.982V3.08762H231.225V7.12407Z" fill="#0094FF"/>
<path d="M221.302 16.2356H218.469V9.57899H210.326V16.2356H207.493V0.56189H210.326V7.05326H218.469V0.56189H221.302V16.2356Z" fill="#0094FF"/>
<path d="M196.662 16.2357H193.829V3.08768H188.896V0.561951H201.572V3.08768H196.662V16.2357Z" fill="#0094FF"/>
</svg>
