<svg width="32" height="32" viewBox="0 0 32 32" fill="none" xmlns="http://www.w3.org/2000/svg">
<rect width="32" height="32" rx="2" fill="#006CD7"/>
<path fill-rule="evenodd" clip-rule="evenodd" d="M26.9791 5.17485C26.7589 5.05245 24.3577 4.95393 22.9205 5.02259C17.0886 5.29726 12.3517 7.43187 9.20665 11.1995C7.01373 13.8208 5.71048 16.9943 5.12729 21.0964C4.96364 22.2159 4.95472 26.921 5.11837 27.0852C5.17788 27.1449 5.64502 27.2285 6.16573 27.2673C7.41542 27.3718 9.94159 27.2972 11.3817 27.1151C14.5059 26.706 17.654 25.5208 20.0165 23.846C21.1799 23.0309 23.0277 21.168 23.8489 20.0007C25.5955 17.5317 26.7262 14.2835 27.0802 10.7905C27.232 9.24106 27.1636 5.29129 26.985 5.17784L26.9791 5.17485ZM25.7829 8.70666C25.5181 14.5313 24.0006 18.3855 20.7693 21.4845H20.7663C18.0973 24.0341 14.4078 25.4999 9.80472 25.8223C6.36508 26.0701 6.3264 26.0492 6.40971 23.2489C6.51386 19.9111 7.1149 17.4332 8.44196 14.8328C9.88208 12.0116 12.0155 9.88891 14.869 8.43498C17.4903 7.10645 20.5521 6.41681 23.8578 6.41681C25.7086 6.41681 25.8901 6.63773 25.7829 8.70367V8.70666Z" fill="white"/>
<path fill-rule="evenodd" clip-rule="evenodd" d="M15.5474 20.6898V22.2392L16.44 22.1795C18.1004 22.0661 19.2876 21.5376 20.448 20.3912C21.6084 19.2448 22.26 17.7043 22.26 16.116V15.4204H20.8021V16.1608C20.8021 17.5819 20.1534 18.8955 19.0138 19.7464C18.2134 20.3375 17.5142 20.5793 16.4341 20.645L15.5444 20.6898H15.5474Z" fill="white"/>
<path fill-rule="evenodd" clip-rule="evenodd" d="M15.5625 19.5021C14.4646 19.3379 13.5422 18.6512 13.0363 17.6272C12.7507 17.054 12.7209 16.9107 12.7209 16.1255C12.7209 15.3881 12.7596 15.1881 12.9768 14.7194C13.3012 14.0237 13.9587 13.361 14.655 13.0356C15.1221 12.8146 15.3245 12.7788 16.104 12.7788C16.8836 12.7788 17.077 12.8087 17.5442 13.0445C18.1363 13.3311 18.8385 14.0297 19.1331 14.6029C20.3738 17.0421 18.2761 19.9021 15.5595 19.4991L15.5625 19.5021Z" fill="white"/>
<path fill-rule="evenodd" clip-rule="evenodd" d="M10.6947 13.5638C10.2484 14.5012 10.1353 14.9192 10.052 16.0596L9.98657 16.8836H11.4624V16.3193C11.4624 13.6742 13.4887 11.6142 16.0773 11.6142H16.7141V10.1514H16.2231C15.2888 10.1603 14.2474 10.4081 13.4084 10.8261C12.2658 11.3963 11.2244 12.4502 10.6977 13.5667L10.6947 13.5638Z" fill="white"/>
</svg>
