<svg width="136" height="24" viewBox="0 0 136 24" fill="none" xmlns="http://www.w3.org/2000/svg">
<path fill-rule="evenodd" clip-rule="evenodd" d="M13.1146 0.104332C12.9832 0.0312949 11.5504 -0.027491 10.6929 0.0134808C7.21309 0.177368 4.38664 1.45105 2.51004 3.69916C1.20156 5.26321 0.423933 7.15681 0.0759531 9.60443C-0.0216944 10.2724 -0.0270204 13.0799 0.070627 13.1779C0.106135 13.2135 0.384874 13.2634 0.69557 13.2865C1.44124 13.3489 2.94856 13.3044 3.80786 13.1957C5.67204 12.9516 7.55042 12.2444 8.9601 11.2451C9.65428 10.7588 10.7568 9.64718 11.2468 8.95066C12.289 7.47746 12.9636 5.53932 13.1749 3.45511C13.2655 2.53057 13.2246 0.173806 13.1181 0.106113L13.1146 0.104332ZM12.4008 2.2117C12.2428 5.68717 11.3374 7.98693 9.40928 9.83601H9.4075C7.81496 11.3573 5.61345 12.232 2.8669 12.4244C0.814523 12.5722 0.791442 12.5597 0.841154 10.8888C0.903293 8.89722 1.26193 7.41868 2.05376 5.86709C2.91306 4.18369 4.18602 2.91713 5.88864 2.0496C7.45278 1.25688 9.27967 0.845386 11.2522 0.845386C12.3565 0.845386 12.4648 0.977207 12.4008 2.20992V2.2117Z" fill="white"/>
<path fill-rule="evenodd" clip-rule="evenodd" d="M6.29342 9.3624V10.2869L6.82604 10.2513C7.81672 10.1836 8.52511 9.86831 9.21752 9.18426C9.90993 8.50021 10.2987 7.58102 10.2987 6.63332V6.21826H9.42879V6.66004C9.42879 7.50798 9.04175 8.29179 8.36177 8.79948C7.88419 9.15219 7.46696 9.29649 6.82249 9.33568L6.29165 9.3624H6.29342Z" fill="white"/>
<path fill-rule="evenodd" clip-rule="evenodd" d="M6.3024 8.65327C5.64727 8.55529 5.09689 8.14557 4.79507 7.53456C4.62464 7.19254 4.60688 7.10703 4.60688 6.63853C4.60688 6.19853 4.62996 6.07917 4.75957 5.7995C4.95308 5.38444 5.34545 4.98897 5.7609 4.7948C6.03963 4.66298 6.16036 4.6416 6.62552 4.6416C7.09068 4.6416 7.20608 4.65942 7.48482 4.80014C7.83812 4.97116 8.25712 5.388 8.43289 5.73002C9.17323 7.18541 7.92157 8.89197 6.30062 8.65149L6.3024 8.65327Z" fill="white"/>
<path fill-rule="evenodd" clip-rule="evenodd" d="M3.39789 5.10985C3.13158 5.6692 3.06411 5.91859 3.0144 6.59908L2.97535 7.09074H3.85595V6.75406C3.85595 5.17576 5.065 3.94661 6.60961 3.94661H6.98954V3.07373H6.6966C6.13912 3.07907 5.51773 3.22693 5.01707 3.47632C4.33531 3.81657 3.71392 4.44539 3.39967 5.11163L3.39789 5.10985Z" fill="white"/>
<path fill-rule="evenodd" clip-rule="evenodd" d="M19.948 13.2295C18.7869 13.0211 17.5388 12.3691 16.6138 11.5051L16.2818 11.188L16.6209 10.8425L16.96 10.4969L17.3399 10.8478C18.4478 11.8685 19.6497 12.337 21.1748 12.337C22.3359 12.337 23.1526 12.0484 23.79 11.4143C24.3474 10.8603 24.6173 10.0301 24.4859 9.24634C24.3776 8.5712 24.0492 8.09913 23.3994 7.68407C22.8703 7.35095 22.3288 7.16034 20.7487 6.76844C19.9214 6.56002 19.0585 6.31775 18.8419 6.2269C17.7838 5.78868 17.1801 5.10819 16.9724 4.12309C16.8641 3.61718 16.8641 3.29297 16.9724 2.83694C17.2085 1.83936 17.9151 1.01458 18.9839 0.490858C19.6746 0.15774 20.0598 0.0579833 20.8854 0.0170116C22.098 -0.0417739 23.3461 0.259279 24.3066 0.84179L24.7558 1.11434L24.4344 1.48309C24.2622 1.67904 24.1078 1.84649 24.0953 1.84649C24.0829 1.84649 23.9515 1.76454 23.8006 1.67369C23.1277 1.24082 22.1211 0.980737 21.1553 0.980737C20.035 0.980737 19.3088 1.25863 18.6324 1.93199C18.0927 2.46819 17.9542 2.80843 17.9879 3.52455C18.0288 4.37249 18.391 4.90334 19.1668 5.25961C19.3745 5.35224 20.1788 5.58204 20.9546 5.77265C22.5987 6.1699 22.9733 6.28569 23.5237 6.56358C24.6546 7.12828 25.276 7.81055 25.5015 8.73152C25.6009 9.13589 25.5885 10.0747 25.4784 10.5076C25.1215 11.8863 23.9551 12.8946 22.3341 13.2295C21.7944 13.3382 20.5463 13.3435 19.948 13.2348V13.2313V13.2295Z" fill="white"/>
<path fill-rule="evenodd" clip-rule="evenodd" d="M38.0305 0.19873C38.0305 0.19873 36.8197 2.33461 35.3514 4.87307L32.6883 9.49397V13.2028H31.623V11.286V9.34077L34.2453 4.77331L36.8605 0.200512H38.0305V0.19873Z" fill="white"/>
<path fill-rule="evenodd" clip-rule="evenodd" d="M30.7726 8.00442L26.3252 0.200195H27.4721L31.3159 7.03713L30.7726 8.00442Z" fill="white"/>
<path d="M39.5698 0.0989497L48.4468 10.6198V0.198707H49.5121V13.3043L40.635 2.74964V13.2028H39.5698V0.097168V0.0989497Z" fill="white"/>
<path d="M53.118 0.0419922L58.2081 8.33431L63.2982 0.0419922L64.5588 13.2046H63.5006L62.5259 2.9403L58.2081 10.0676L53.8921 2.9403L52.9174 13.2046H51.8593L53.1198 0.0419922H53.118Z" fill="white"/>
<path fill-rule="evenodd" clip-rule="evenodd" d="M76.3561 13.2047C76.3561 13.2047 75.2909 10.7161 74.0499 7.7359C72.8089 4.76278 71.7419 2.33654 71.7419 2.33654C71.7419 2.33654 70.6695 4.79128 69.4232 7.77687L67.156 13.2047H66.057L71.7419 0.00292969C71.7419 0.00292969 73.0645 2.97071 74.618 6.60116L77.4427 13.2047H76.3561Z" fill="white"/>
<path fill-rule="evenodd" clip-rule="evenodd" d="M78.79 13.2048H80.0097L83.8996 7.47227L87.7753 13.2048H89.0234L84.5192 6.53705L88.7589 0.200684H87.5516L78.79 13.2048Z" fill="white"/>
<path fill-rule="evenodd" clip-rule="evenodd" d="M82.5931 5.54126C82.6605 5.43438 83.218 4.61316 83.218 4.61316L80.2353 0.200684H78.9836C78.9836 0.200684 82.5132 5.42191 82.5948 5.54126H82.5931Z" fill="white"/>
<path d="M32.426 19.0371H31.7236V23.9165H32.426V19.0371Z" fill="white"/>
<path d="M37.6394 22.2713L34.5063 18.9302L34.51 19.2237V23.9183H35.2124V20.6986L38.3419 23.9999V18.9972H37.6394V22.2713Z" fill="white"/>
<path d="M77.3837 22.2713L74.2506 18.9302L74.2543 19.2237V23.9183H74.9567V20.6986L78.0862 23.9999L78.0844 23.7154V18.9972H77.3837V22.2713Z" fill="white"/>
<path d="M40.1477 19.7184H41.5599V23.9183H42.2605V19.7184H43.6655V19.0371H40.1477V19.7184Z" fill="white"/>
<path d="M45.4677 23.9183H48.5376V23.237H46.1701V21.8799H48.2414V21.2005H46.1701V19.7184H48.5376V19.0371H45.4677V23.9183Z" fill="white"/>
<path d="M51.1398 19.0624H50.4391V23.9183H53.5072V23.237H51.1398V19.0624Z" fill="white"/>
<path d="M56.01 19.0624H55.3094V23.9183H58.3775V23.237H56.01V19.0624Z" fill="white"/>
<path d="M60.8822 19.0371H60.1797V23.9165H60.8822V19.0371Z" fill="white"/>
<path d="M65.0735 22.034H66.5687C66.5326 22.1898 66.4838 22.3347 66.4188 22.4634C66.3303 22.6427 66.2165 22.7968 66.0847 22.9236C65.9529 23.0486 65.7994 23.1446 65.6279 23.2117C65.2667 23.3512 64.8225 23.3476 64.4487 23.1845C64.2536 23.0993 64.0785 22.9761 63.9286 22.8185C63.7787 22.6609 63.6577 22.467 63.571 22.2423C63.4825 22.0158 63.4374 21.7585 63.4374 21.4759C63.4374 21.1932 63.4825 20.9359 63.571 20.7095C63.6595 20.4848 63.7805 20.2891 63.9286 20.1333C64.0785 19.9756 64.2536 19.8542 64.4505 19.7673C64.6473 19.6821 64.8568 19.6386 65.0735 19.6386C65.3425 19.6386 65.5935 19.693 65.8175 19.7999C66.0378 19.905 66.2129 20.0481 66.3375 20.2257L66.408 20.3253L67.0797 20.1115L66.9678 19.9303C66.7836 19.6332 66.5235 19.3958 66.1931 19.2201C65.8662 19.0461 65.487 18.9574 65.068 18.9574C64.7556 18.9574 64.4541 19.019 64.1706 19.1385C63.887 19.2599 63.636 19.4321 63.4229 19.6531C63.2099 19.8724 63.0383 20.1405 62.9137 20.4485C62.7873 20.7566 62.7241 21.1026 62.7241 21.4741C62.7241 21.8455 62.7873 22.1898 62.9137 22.4996C63.0401 22.8076 63.2117 23.0758 63.4229 23.295C63.636 23.5161 63.887 23.6882 64.1706 23.8096C64.4541 23.931 64.7556 23.9926 65.068 23.9926C65.3805 23.9926 65.682 23.9346 65.9529 23.8205C66.2256 23.7045 66.4658 23.5396 66.6662 23.3258C66.8666 23.1138 67.0292 22.8584 67.1484 22.563C67.2675 22.2695 67.3343 21.9415 67.347 21.5882L67.3632 21.3509H65.0753V22.0321L65.0735 22.034Z" fill="white"/>
<path d="M69.1763 23.9183H72.2462V23.237H69.8788V21.8799H71.95V21.2005H69.8788V19.7184H72.2462V19.0371H69.1763V23.9183Z" fill="white"/>
<path d="M81.0261 20.1351C81.176 19.9775 81.3511 19.8561 81.548 19.7691C81.7448 19.6839 81.9543 19.6404 82.171 19.6404C82.4509 19.6404 82.7109 19.7002 82.9439 19.8162C83.1732 19.9303 83.352 20.0898 83.4766 20.2909L83.5434 20.3978L84.226 20.1967L84.1213 20.0137C83.9335 19.6894 83.6662 19.4284 83.3267 19.24C82.989 19.0534 82.599 18.9592 82.1674 18.9592C81.855 18.9592 81.5534 19.0208 81.2699 19.1404C80.9864 19.2618 80.7353 19.4339 80.5223 19.6549C80.3092 19.8742 80.1376 20.1423 80.013 20.4504C79.8866 20.7584 79.8234 21.1044 79.8234 21.4759C79.8234 21.8473 79.8866 22.1916 80.013 22.5014C80.1394 22.8094 80.311 23.0776 80.5223 23.2968C80.7353 23.5179 80.9864 23.69 81.2699 23.8114C81.5534 23.9328 81.855 23.9944 82.1674 23.9944C82.5863 23.9944 82.971 23.902 83.3123 23.7208C83.6572 23.5378 83.9298 23.2751 84.1213 22.9399L84.226 22.7587L83.547 22.5576L83.4802 22.6627C83.3484 22.8692 83.1642 23.0305 82.9348 23.1428C82.5159 23.3476 81.994 23.3802 81.5498 23.1863C81.3529 23.1012 81.1778 22.9779 81.0279 22.8203C80.878 22.6627 80.757 22.4688 80.6703 22.2441C80.5819 22.0176 80.5367 21.7604 80.5367 21.4777C80.5367 21.195 80.5819 20.9378 80.6703 20.7113C80.7588 20.4866 80.8798 20.2909 81.0279 20.1351H81.0261Z" fill="white"/>
<path d="M89.0241 19.7184V19.0371H85.9542V23.9183H89.0241V23.237H86.6566V21.8799H88.7297V21.2005H86.6566V19.7184H89.0241Z" fill="white"/>
<path d="M98.3306 8.11768H96.9144V1.54371H94.4476V0.28085H100.786V1.54371H98.3306V8.11768ZM110.651 8.11768H109.235V4.78939H105.163V8.11768H103.746V0.28085H105.163V3.52652H109.235V0.28085H110.651V8.11768ZM115.612 3.56193H119.141V4.78939H115.612V6.85481H119.991V8.11768H114.196V0.28085H119.991V1.54371H115.612V3.56193ZM123.216 8.11768V0.28085H124.632V8.11768H123.216ZM134.21 8.11768L133.585 6.64237H129.572L128.946 8.11768H127.471L130.917 0.28085H132.275L135.733 8.11768H134.21ZM131.59 1.88598H131.566L130.091 5.40311H133.065L131.59 1.88598Z" fill="#006CD7"/>
</svg>
